<?xml version="1.0" encoding="UTF-8"?>
<svg id="Layer_1" data-name="Layer 1" xmlns="http://www.w3.org/2000/svg" xmlns:xlink="http://www.w3.org/1999/xlink" viewBox="0 0 1920 1080">
  <defs>
    <filter id="drop-shadow-1" x="221.5" y="57.17" width="1437" height="988" filterUnits="userSpaceOnUse">
      <feOffset dx="10" dy="7"/>
      <feGaussianBlur result="blur" stdDeviation="0"/>
      <feFlood flood-color="#000" flood-opacity="1"/>
      <feComposite in2="blur" operator="in"/>
      <feComposite in="SourceGraphic"/>
    </filter>
    <filter id="drop-shadow-2" x="1418" y="69" width="70" height="63" filterUnits="userSpaceOnUse">
      <feOffset dx="2" dy="2"/>
      <feGaussianBlur result="blur-2" stdDeviation="3"/>
      <feFlood flood-color="#000" flood-opacity="1"/>
      <feComposite in2="blur-2" operator="in"/>
      <feComposite in="SourceGraphic"/>
    </filter>
    <filter id="drop-shadow-3" x="1491" y="69" width="71" height="63" filterUnits="userSpaceOnUse">
      <feOffset dx="2" dy="2"/>
      <feGaussianBlur result="blur-3" stdDeviation="3"/>
      <feFlood flood-color="#000" flood-opacity="1"/>
      <feComposite in2="blur-3" operator="in"/>
      <feComposite in="SourceGraphic"/>
    </filter>
    <filter id="drop-shadow-4" x="1563" y="69" width="71" height="63" filterUnits="userSpaceOnUse">
      <feOffset dx="2" dy="2"/>
      <feGaussianBlur result="blur-4" stdDeviation="3"/>
      <feFlood flood-color="#000" flood-opacity="1"/>
      <feComposite in2="blur-4" operator="in"/>
      <feComposite in="SourceGraphic"/>
    </filter>
    <filter id="drop-shadow-5" x="289.5" y="292.5" width="579" height="687.33" filterUnits="userSpaceOnUse">
      <feOffset dx="4" dy="3"/>
      <feGaussianBlur result="blur-5" stdDeviation="0"/>
      <feFlood flood-color="#000" flood-opacity="1"/>
      <feComposite in2="blur-5" operator="in"/>
      <feComposite in="SourceGraphic"/>
    </filter>
    <filter id="drop-shadow-6" x="950.83" y="292.5" width="579" height="687.33" filterUnits="userSpaceOnUse">
      <feOffset dx="4" dy="3"/>
      <feGaussianBlur result="blur-6" stdDeviation="0"/>
      <feFlood flood-color="#000" flood-opacity="1"/>
      <feComposite in2="blur-6" operator="in"/>
      <feComposite in="SourceGraphic"/>
    </filter>
  </defs>
  <rect x="223" y="58.67" width="1424" height="978" style="fill: #3394fb; filter: url(#drop-shadow-1); stroke: #000; stroke-miterlimit: 10; stroke-width: 3px;"/>
  <rect x="223" y="58.67" width="1424" height="80" style="fill: #e7317e; stroke: #000; stroke-miterlimit: 10; stroke-width: 3px;"/>
  <rect x="1425.67" y="77.33" width="50.67" height="42.67" style="fill: #d3d3d3; filter: url(#drop-shadow-2); stroke: #fff; stroke-miterlimit: 10;"/>
  <rect x="1499" y="77.33" width="50.67" height="42.67" style="fill: #d3d3d3; filter: url(#drop-shadow-3); stroke: #fff; stroke-miterlimit: 10;"/>
  <rect x="1571" y="77.33" width="50.67" height="42.67" style="fill: #dd9090; filter: url(#drop-shadow-4); stroke: #fff; stroke-miterlimit: 10;"/>
  <path d="M1609.13,83.31l-26.67,32" style="stroke: #000; stroke-miterlimit: 10; stroke-width: 3px;"/>
  <path d="M1582.32,84.25l29.14,29.76" style="stroke: #000; stroke-miterlimit: 10; stroke-width: 3px;"/>
  <path d="M1471.83,113.45l-41.65.38" style="stroke: #000; stroke-miterlimit: 10; stroke-width: 3px;"/>
  <rect x="1505.86" y="86.14" width="26" height="26" style="fill: none; stroke: #000; stroke-miterlimit: 10; stroke-width: 3px;"/>
  <rect x="1518.86" y="94" width="26" height="26" style="fill: #d3d3d3; stroke: #000; stroke-miterlimit: 10; stroke-width: 3px;"/>
  <rect x="223" y="138.67" width="1424" height="94" style="fill: #d3d3d3; stroke: #000; stroke-miterlimit: 10; stroke-width: 3px;"/>
  <rect x="237.67" y="148.33" width="86.67" height="74.67" style="fill: #fff; stroke: #000; stroke-miterlimit: 10; stroke-width: 3px;"/>
  <rect x="341.67" y="148.33" width="86.67" height="74.67" style="fill: #fff; stroke: #000; stroke-miterlimit: 10; stroke-width: 3px;"/>
  <rect x="813.67" y="148.33" width="685.33" height="74.67" style="fill: #fff; stroke: #000; stroke-miterlimit: 10; stroke-width: 3px;"/>
  <rect x="1499" y="148.33" width="96.8" height="74.67" style="fill: #d3d3d3; stroke: #000; stroke-miterlimit: 10; stroke-width: 3px;"/>
  <path d="M1523.95,170.15l41.82.86-20.91,30.16-20.91-31.03Z" style="stroke: #000; stroke-miterlimit: 10; stroke-width: 3px;"/>
  <polyline points="281 173 281 198.33 318.33 198.33 318.33 173" style="stroke: #000; stroke-miterlimit: 10; stroke-width: 3px;"/>
  <polygon points="281 163.19 281 208.15 248.98 183.49 281 163.19" style="stroke: #000; stroke-miterlimit: 10; stroke-width: 3px;"/>
  <polyline points="347.67 173 347.67 198.33 385 198.33 385 173" style="stroke: #000; stroke-miterlimit: 10; stroke-width: 3px;"/>
  <polygon points="385 163.19 385 208.15 420.43 183.49 385 163.19" style="stroke: #000; stroke-miterlimit: 10; stroke-width: 3px;"/>
  <rect x="1596.9" y="232.67" width="50.1" height="804" style="fill: #d3d3d3; stroke: #000; stroke-miterlimit: 10; stroke-width: 3px;"/>
  <rect x="1596.9" y="232.67" width="50.1" height="36.83" style="fill: #d3d3d3; stroke: #000; stroke-miterlimit: 10; stroke-width: 3px;"/>
  <rect x="1596.33" y="999.84" width="50.1" height="36.83" style="fill: #d3d3d3; stroke: #000; stroke-miterlimit: 10; stroke-width: 3px;"/>
  <rect x="1596.9" y="269.49" width="49.54" height="398.67" style="fill: #e7317e; stroke: #000; stroke-miterlimit: 10; stroke-width: 3px;"/>
  <path d="M1607.39,262.91h28l-14-23.67-14,23.67Z" style="stroke: #000; stroke-miterlimit: 10; stroke-width: 3px;"/>
  <path d="M1607.95,1006.86h28l-14,22.78-14-22.78Z" style="stroke: #000; stroke-miterlimit: 10; stroke-width: 3px;"/>
  <rect x="291" y="294" width="572" height="681.33" style="fill: #fff; filter: url(#drop-shadow-5); stroke: #000; stroke-miterlimit: 10; stroke-width: 3px;"/>
  <rect x="952.33" y="294" width="572" height="681.33" style="fill: #fff; filter: url(#drop-shadow-6); stroke: #000; stroke-miterlimit: 10; stroke-width: 3px;"/>
  <polygon points="433.43 629.48 433.43 585.85 457.28 547.67 554.07 547.67 577.4 588.57 814.33 588.57 814.33 849.47 433.43 860.38 433.43 629.48" style="fill: #ffcd03; stroke: #000; stroke-linejoin: round; stroke-width: 3px;"/>
  <polygon points="318.33 630.04 434.46 857.98 814.33 857.98 713.95 630.04 318.33 630.04" style="fill: #ffcd03; stroke: #000; stroke-linejoin: round; stroke-width: 3px;"/>
  <path d="M1217.37,505.97c-96.9,11.63-185.04,102.22-172.73,208.06,12.29,105.66,118.36,172.08,214.86,160.38,96.08-11.65,183.81-100.86,172.73-205.9-11.18-106.07-117.41-174.24-214.86-162.55Z" style="fill: #ffcd03; stroke: #000; stroke-miterlimit: 10; stroke-width: 3px;"/>
  <path d="M1299.3,586.76c-13.06,1.33-22.62,22.71-24.61,39.77-3.5,30.12,14.48,64.99,30.76,63.64,13.74-1.14,25.73-28.06,25.16-51.7-.6-25.18-15.57-53.31-31.32-51.7Z" style="stroke: #000; stroke-miterlimit: 10; stroke-width: 3px;"/>
  <path d="M1181.38,586.76c-13.06,1.33-22.62,22.71-24.61,39.77-3.5,30.12,14.48,64.99,30.76,63.64,13.74-1.14,25.73-28.06,25.16-51.7-.6-25.18-15.57-53.31-31.32-51.7Z" style="stroke: #000; stroke-miterlimit: 10; stroke-width: 3px;"/>
  <path d="M1153.28,751.33c19.41,35.75,57.62,56.32,96,52,48.76-5.49,72.16-48.29,74.11-52" style="fill: none; stroke: #000; stroke-miterlimit: 10; stroke-width: 3px;"/>
  <path d="M1132.01,744.86c6.35,9.5,17.23,10.08,21.66,5.28,3.41-3.69,3.7-11.32,0-17.96" style="fill: none; stroke: #000; stroke-miterlimit: 10; stroke-width: 3px;"/>
  <path d="M1344.8,745.51c-6.7,8.96-18.19,9.51-22.87,4.98-3.6-3.48-3.91-10.68,0-16.94" style="fill: none; stroke: #000; stroke-miterlimit: 10; stroke-width: 3px;"/>
  <text transform="translate(357.69 438.89) scale(1.02 1)" style="fill: #f74e2c; font-family: LexendMega-Bold, &apos;Lexend Mega&apos;; font-size: 68.9px; font-weight: 700;"><tspan x="0" y="0" style="letter-spacing: 0em;">P</tspan><tspan x="58.98" y="0">o</tspan><tspan x="118.64" y="0" style="letter-spacing: .02em;">r</tspan><tspan x="167.56" y="0" style="letter-spacing: -.02em;">t</tspan><tspan x="209.38" y="0" style="letter-spacing: -.02em;">f</tspan><tspan x="249.96" y="0">olio</tspan></text>
  <text transform="translate(1049.07 438.89) scale(1.02 1)" style="fill: #f74e2c; font-family: LexendMega-Bold, &apos;Lexend Mega&apos;; font-size: 68.9px; font-weight: 700;"><tspan x="0" y="0">Om mig</tspan></text>
</svg>