<?xml version="1.0" encoding="UTF-8"?>
<svg id="Layer_1" data-name="Layer 1" xmlns="http://www.w3.org/2000/svg" xmlns:xlink="http://www.w3.org/1999/xlink" viewBox="0 0 449.33 368">
  <defs>
    <filter id="drop-shadow-1" x="7.21" y="7.47" width="438.3" height="347.66" filterUnits="userSpaceOnUse">
      <feOffset dx="10" dy="7"/>
      <feGaussianBlur result="blur" stdDeviation="0"/>
      <feFlood flood-color="#000" flood-opacity="1"/>
      <feComposite in2="blur" operator="in"/>
      <feComposite in="SourceGraphic"/>
    </filter>
  </defs>
  <polygon points="131.96 94.67 154.63 10.67 223.96 94.67 309.29 20 321.29 109.33 431.96 88 366.63 174.67 431.96 230.67 349.29 244 366.63 325.33 281.96 282.67 247.96 345.33 203.96 285.33 131.96 340 131.96 272 39.96 286.67 103.96 221.33 11.96 188.67 99.96 161.33 31.96 66.67 131.96 94.67" style="fill: #e7317e; filter: url(#drop-shadow-1); stroke: #000; stroke-miterlimit: 10; stroke-width: 3px;"/>
  <g>
    <path d="M115.71,207.09v-28h15.24c1.84,0,3.49.4,4.96,1.2,1.47.8,2.63,1.89,3.5,3.28.87,1.39,1.3,2.95,1.3,4.68,0,1.87-.46,3.53-1.38,5-.92,1.47-2.15,2.62-3.68,3.46-1.53.84-3.27,1.26-5.22,1.26h-7.92v9.12h-6.8ZM122.39,192.01h6.88c.8,0,1.53-.16,2.18-.48.65-.32,1.17-.75,1.56-1.3.39-.55.58-1.17.58-1.86s-.19-1.28-.58-1.76c-.39-.48-.91-.85-1.56-1.12-.65-.27-1.38-.4-2.18-.4h-6.88v6.92Z"/>
    <path d="M161.63,207.49c-2.64,0-4.98-.47-7.02-1.42-2.04-.95-3.63-2.25-4.78-3.92-1.15-1.67-1.72-3.57-1.72-5.7s.57-4.07,1.72-5.72c1.15-1.65,2.74-2.95,4.78-3.9,2.04-.95,4.38-1.42,7.02-1.42s4.93.47,6.96,1.42c2.03.95,3.61,2.25,4.76,3.9,1.15,1.65,1.72,3.56,1.72,5.72s-.57,4.03-1.72,5.7c-1.15,1.67-2.73,2.97-4.76,3.92-2.03.95-4.35,1.42-6.96,1.42ZM161.63,201.97c1.28,0,2.45-.23,3.52-.7,1.07-.47,1.91-1.11,2.54-1.94.63-.83.93-1.79.9-2.88.03-1.09-.27-2.06-.9-2.9-.63-.84-1.47-1.49-2.54-1.96-1.07-.47-2.24-.7-3.52-.7s-2.51.23-3.6.7c-1.09.47-1.94,1.12-2.54,1.96-.6.84-.9,1.81-.9,2.9s.3,2.05.9,2.88c.6.83,1.45,1.47,2.54,1.94,1.09.47,2.29.7,3.6.7Z"/>
    <path d="M185.27,207.09v-21.24h6.08l.28,7.6-1.72-.48c.4-1.41,1.06-2.69,1.98-3.82.92-1.13,2-2.04,3.24-2.72,1.24-.68,2.54-1.02,3.9-1.02.83,0,1.61.08,2.34.24.73.16,1.38.39,1.94.68l-1.76,6.92c-.48-.32-1.12-.57-1.92-.76-.8-.19-1.59-.28-2.36-.28-.88,0-1.67.13-2.36.4-.69.27-1.28.64-1.76,1.12-.48.48-.84,1.02-1.08,1.62-.24.6-.36,1.22-.36,1.86v9.88h-6.44Z"/>
    <path d="M210.63,191.44v-5.6h17.88v5.6h-17.88ZM215.91,207.09v-27.36h6.4v27.36h-6.4Z"/>
    <path d="M235.23,191.97v-5.28h17.48v5.28h-17.48ZM239.35,207.09v-21.2c0-1.68.36-3.15,1.08-4.42.72-1.27,1.74-2.26,3.06-2.98,1.32-.72,2.85-1.08,4.58-1.08,1.39,0,2.59.17,3.6.52,1.01.35,1.85.73,2.52,1.16l-1.8,4.72c-.45-.21-.97-.43-1.56-.66-.59-.23-1.19-.34-1.8-.34-.8,0-1.46.14-1.98.42-.52.28-.91.67-1.16,1.16-.25.49-.38,1.06-.38,1.7v21h-6.16Z"/>
    <path d="M272.51,207.49c-2.64,0-4.98-.47-7.02-1.42-2.04-.95-3.63-2.25-4.78-3.92-1.15-1.67-1.72-3.57-1.72-5.7s.57-4.07,1.72-5.72c1.15-1.65,2.74-2.95,4.78-3.9,2.04-.95,4.38-1.42,7.02-1.42s4.93.47,6.96,1.42c2.03.95,3.61,2.25,4.76,3.9,1.15,1.65,1.72,3.56,1.72,5.72s-.57,4.03-1.72,5.7c-1.15,1.67-2.73,2.97-4.76,3.92-2.03.95-4.35,1.42-6.96,1.42ZM272.51,201.97c1.28,0,2.45-.23,3.52-.7,1.07-.47,1.91-1.11,2.54-1.94.63-.83.93-1.79.9-2.88.03-1.09-.27-2.06-.9-2.9-.63-.84-1.47-1.49-2.54-1.96-1.07-.47-2.24-.7-3.52-.7s-2.51.23-3.6.7c-1.09.47-1.94,1.12-2.54,1.96-.6.84-.9,1.81-.9,2.9s.3,2.05.9,2.88c.6.83,1.45,1.47,2.54,1.94,1.09.47,2.29.7,3.6.7Z"/>
    <path d="M296.15,207.09v-29.6h6.4v29.6h-6.4Z"/>
    <path d="M318.75,181.4c-1.2,0-2.13-.29-2.8-.86-.67-.57-1-1.39-1-2.46,0-.96.34-1.75,1.02-2.36.68-.61,1.61-.92,2.78-.92s2.14.29,2.82.86c.68.57,1.02,1.38,1.02,2.42s-.34,1.79-1.02,2.4c-.68.61-1.62.92-2.82.92ZM315.55,207.09v-21.24h6.44v21.24h-6.44Z"/>
    <path d="M345.99,207.49c-2.64,0-4.98-.47-7.02-1.42-2.04-.95-3.63-2.25-4.78-3.92-1.15-1.67-1.72-3.57-1.72-5.7s.57-4.07,1.72-5.72c1.15-1.65,2.74-2.95,4.78-3.9,2.04-.95,4.38-1.42,7.02-1.42s4.93.47,6.96,1.42c2.03.95,3.61,2.25,4.76,3.9,1.15,1.65,1.72,3.56,1.72,5.72s-.57,4.03-1.72,5.7c-1.15,1.67-2.73,2.97-4.76,3.92-2.03.95-4.35,1.42-6.96,1.42ZM345.99,201.97c1.28,0,2.45-.23,3.52-.7,1.07-.47,1.91-1.11,2.54-1.94.63-.83.93-1.79.9-2.88.03-1.09-.27-2.06-.9-2.9-.63-.84-1.47-1.49-2.54-1.96-1.07-.47-2.24-.7-3.52-.7s-2.51.23-3.6.7c-1.09.47-1.94,1.12-2.54,1.96-.6.84-.9,1.81-.9,2.9s.3,2.05.9,2.88c.6.83,1.45,1.47,2.54,1.94,1.09.47,2.29.7,3.6.7Z"/>
  </g>
</svg>