<?xml version="1.0" encoding="UTF-8"?>
<svg id="Layer_1" data-name="Layer 1" xmlns="http://www.w3.org/2000/svg" xmlns:xlink="http://www.w3.org/1999/xlink" viewBox="0 0 449.33 368">
  <defs>
    <filter id="drop-shadow-1" x="7.21" y="7.47" width="438.3" height="347.66" filterUnits="userSpaceOnUse">
      <feOffset dx="10" dy="7"/>
      <feGaussianBlur result="blur" stdDeviation="0"/>
      <feFlood flood-color="#000" flood-opacity="1"/>
      <feComposite in2="blur" operator="in"/>
      <feComposite in="SourceGraphic"/>
    </filter>
  </defs>
  <polygon points="131.96 94.67 154.63 10.67 223.96 94.67 309.29 20 321.29 109.33 431.96 88 366.63 174.67 431.96 230.67 349.29 244 366.63 325.33 281.96 282.67 247.96 345.33 203.96 285.33 131.96 340 131.96 272 39.96 286.67 103.96 221.33 11.96 188.67 99.96 161.33 31.96 66.67 131.96 94.67" style="fill: #e7317e; filter: url(#drop-shadow-1); stroke: #000; stroke-miterlimit: 10; stroke-width: 3px;"/>
  <g>
    <path d="M116.85,207.09v-33.6h8.16v33.6h-8.16ZM120.25,194.51v-6.82h21.46v6.82h-21.46ZM120.69,180.69v-7.2h22.99v7.2h-22.99Z"/>
    <path d="M168.83,207.57c-3.17,0-5.98-.57-8.42-1.7-2.45-1.13-4.36-2.7-5.74-4.7-1.38-2-2.06-4.28-2.06-6.84s.69-4.88,2.06-6.86c1.38-1.98,3.29-3.54,5.74-4.68,2.45-1.14,5.26-1.7,8.42-1.7s5.92.57,8.35,1.7c2.43,1.14,4.34,2.7,5.71,4.68,1.38,1.98,2.06,4.27,2.06,6.86s-.69,4.84-2.06,6.84c-1.38,2-3.28,3.57-5.71,4.7-2.43,1.14-5.22,1.7-8.35,1.7ZM168.83,200.94c1.54,0,2.94-.28,4.22-.84,1.28-.56,2.3-1.34,3.05-2.33.75-.99,1.11-2.14,1.08-3.46.03-1.31-.33-2.47-1.08-3.48-.75-1.01-1.77-1.79-3.05-2.35-1.28-.56-2.69-.84-4.22-.84s-3.01.28-4.32.84c-1.31.56-2.33,1.34-3.05,2.35-.72,1.01-1.08,2.17-1.08,3.48s.36,2.46,1.08,3.46c.72.99,1.74,1.77,3.05,2.33,1.31.56,2.75.84,4.32.84Z"/>
    <path d="M197.2,207.09v-25.49h7.3l.34,9.12-2.06-.58c.48-1.7,1.27-3.22,2.38-4.58,1.1-1.36,2.4-2.45,3.89-3.26,1.49-.82,3.05-1.22,4.68-1.22.99,0,1.93.1,2.81.29.88.19,1.66.46,2.33.82l-2.11,8.3c-.58-.38-1.34-.69-2.3-.91-.96-.22-1.9-.34-2.83-.34-1.06,0-2,.16-2.83.48-.83.32-1.54.77-2.11,1.34-.58.58-1.01,1.22-1.3,1.94-.29.72-.43,1.46-.43,2.23v11.86h-7.73Z"/>
    <path d="M240.64,207.57c-3.01,0-5.71-.4-8.11-1.2-2.4-.8-4.35-1.97-5.86-3.5l4.7-4.22c1.12,1.06,2.51,1.87,4.18,2.45,1.66.58,3.47.86,5.42.86.61,0,1.2-.03,1.78-.1.58-.06,1.09-.19,1.54-.38.45-.19.81-.42,1.08-.67.27-.26.41-.59.41-1.01,0-.61-.46-1.07-1.39-1.39-.61-.26-1.39-.47-2.35-.65-.96-.18-1.95-.34-2.98-.5-1.95-.32-3.65-.69-5.09-1.1-1.44-.42-2.67-.98-3.7-1.68-.83-.64-1.49-1.4-1.97-2.28-.48-.88-.72-1.94-.72-3.19s.33-2.35.98-3.31c.66-.96,1.57-1.79,2.74-2.5,1.17-.7,2.51-1.23,4.03-1.58,1.52-.35,3.11-.53,4.78-.53s3.2.14,4.8.43c1.6.29,3.11.71,4.54,1.27,1.42.56,2.68,1.29,3.77,2.18l-3.89,4.7c-.77-.58-1.68-1.1-2.74-1.56-1.06-.46-2.18-.83-3.38-1.1-1.2-.27-2.39-.41-3.58-.41-.61,0-1.18.03-1.73.1-.54.06-1.04.18-1.49.34-.45.16-.8.37-1.06.62s-.38.56-.38.91c0,.26.07.5.22.74.14.24.38.46.7.65.54.29,1.33.54,2.35.77,1.02.22,2.21.46,3.55.72,2.21.38,4.1.84,5.66,1.37,1.57.53,2.83,1.14,3.79,1.85.74.58,1.28,1.23,1.63,1.97.35.74.53,1.57.53,2.5,0,1.7-.55,3.18-1.66,4.44-1.1,1.26-2.6,2.25-4.49,2.95-1.89.7-4.1,1.06-6.62,1.06Z"/>
    <path d="M268.96,176.27c-1.44,0-2.56-.34-3.36-1.03-.8-.69-1.2-1.67-1.2-2.95,0-1.15.41-2.1,1.22-2.83.82-.74,1.93-1.1,3.34-1.1s2.57.34,3.38,1.03c.82.69,1.22,1.66,1.22,2.9s-.41,2.14-1.22,2.88c-.82.74-1.94,1.1-3.38,1.1ZM265.12,207.09v-25.49h7.73v25.49h-7.73Z"/>
    <path d="M298.19,207.61c-2.66,0-4.98-.56-6.96-1.68-1.98-1.12-3.54-2.69-4.66-4.7-1.12-2.02-1.68-4.3-1.68-6.86s.58-4.89,1.73-6.89c1.15-2,2.76-3.57,4.82-4.7,2.06-1.14,4.44-1.7,7.13-1.7,1.54,0,2.97.18,4.3.55,1.33.37,2.51.86,3.55,1.49,1.04.62,1.87,1.32,2.5,2.09.62.77.98,1.55,1.08,2.35l-1.82.43v-16.42h7.73v35.52h-7.15l-.43-6.43,1.54.48c-.1.8-.47,1.58-1.13,2.35-.66.77-1.51,1.46-2.57,2.06-1.06.61-2.26,1.1-3.62,1.49-1.36.38-2.81.58-4.34.58ZM300.44,201.04c1.6,0,3-.28,4.2-.84,1.2-.56,2.12-1.34,2.76-2.35.64-1.01.96-2.17.96-3.48s-.32-2.51-.96-3.5c-.64-.99-1.56-1.78-2.76-2.35-1.2-.58-2.6-.86-4.2-.86s-2.98.29-4.15.86c-1.17.58-2.09,1.36-2.76,2.35-.67.99-1.01,2.16-1.01,3.5s.34,2.47,1.01,3.48c.67,1.01,1.59,1.79,2.76,2.35,1.17.56,2.55.84,4.15.84Z"/>
    <path d="M342.78,207.57c-3.26,0-6.13-.57-8.59-1.7-2.46-1.13-4.38-2.7-5.74-4.68-1.36-1.98-2.04-4.22-2.04-6.72,0-2.05.41-3.89,1.22-5.52.82-1.63,1.92-3.03,3.31-4.2,1.39-1.17,3.03-2.07,4.92-2.71,1.89-.64,3.87-.96,5.95-.96s4.06.32,5.83.96c1.78.64,3.33,1.53,4.66,2.66,1.33,1.14,2.35,2.49,3.07,4.06.72,1.57,1.05,3.3.98,5.18l-.05,2.26h-24.62l-1.1-4.66h19.49l-.82,1.06v-.96c-.13-.86-.53-1.62-1.2-2.26-.67-.64-1.54-1.14-2.59-1.51-1.06-.37-2.24-.55-3.55-.55-1.57,0-2.98.23-4.22.7-1.25.46-2.24,1.18-2.98,2.16-.74.98-1.1,2.22-1.1,3.72,0,1.38.42,2.61,1.27,3.7.85,1.09,2.04,1.94,3.58,2.57s3.36.94,5.47.94c1.95,0,3.56-.23,4.82-.7s2.31-.95,3.14-1.46l3.36,4.94c-1.12.8-2.35,1.47-3.7,2.02-1.34.54-2.75.96-4.22,1.25-1.47.29-2.99.43-4.56.43Z"/>
  </g>
</svg>