<?xml version="1.0" encoding="UTF-8"?>
<svg id="Layer_1" data-name="Layer 1" xmlns="http://www.w3.org/2000/svg" xmlns:xlink="http://www.w3.org/1999/xlink" viewBox="0 0 449.33 368">
  <defs>
    <filter id="drop-shadow-1" x="7.21" y="7.47" width="438.3" height="347.66" filterUnits="userSpaceOnUse">
      <feOffset dx="10" dy="7"/>
      <feGaussianBlur result="blur" stdDeviation="0"/>
      <feFlood flood-color="#000" flood-opacity="1"/>
      <feComposite in2="blur" operator="in"/>
      <feComposite in="SourceGraphic"/>
    </filter>
  </defs>
  <polygon points="131.96 94.67 154.63 10.67 223.96 94.67 309.29 20 321.29 109.33 431.96 88 366.63 174.67 431.96 230.67 349.29 244 366.63 325.33 281.96 282.67 247.96 345.33 203.96 285.33 131.96 340 131.96 272 39.96 286.67 103.96 221.33 11.96 188.67 99.96 161.33 31.96 66.67 131.96 94.67" style="fill: #e7317e; filter: url(#drop-shadow-1); stroke: #000; stroke-miterlimit: 10; stroke-width: 3px;"/>
  <g>
    <path d="M133.44,207.55c-2.82,0-5.39-.42-7.71-1.27-2.32-.84-4.32-2.02-6.03-3.52-1.7-1.5-3.02-3.27-3.96-5.29-.94-2.02-1.4-4.23-1.4-6.62s.47-4.6,1.4-6.62c.94-2.02,2.26-3.79,3.98-5.29,1.72-1.5,3.73-2.68,6.03-3.52,2.3-.84,4.85-1.27,7.64-1.27s5.34.41,7.66,1.24c2.32.83,4.32,2,6.03,3.52,1.7,1.52,3.02,3.29,3.96,5.31.94,2.02,1.4,4.23,1.4,6.62s-.47,4.6-1.4,6.62-2.25,3.79-3.96,5.31c-1.7,1.52-3.71,2.69-6.03,3.52s-4.85,1.24-7.61,1.24ZM133.4,200.19c1.62,0,3.11-.24,4.46-.71,1.35-.47,2.52-1.13,3.52-1.98,1-.84,1.76-1.83,2.3-2.97.54-1.13.81-2.36.81-3.68s-.27-2.55-.81-3.68c-.54-1.13-1.3-2.12-2.3-2.97-1-.84-2.17-1.5-3.52-1.98-1.35-.48-2.84-.71-4.46-.71s-3.07.24-4.42.71c-1.35.48-2.53,1.13-3.54,1.95-1.01.83-1.78,1.82-2.3,2.97-.52,1.15-.78,2.38-.78,3.7s.26,2.55.78,3.7c.52,1.15,1.29,2.14,2.3,2.97,1.01.83,2.19,1.48,3.54,1.96,1.35.48,2.82.71,4.42.71Z"/>
    <path d="M163.85,207.09v-24.43h6.99l.23,5.61-1.56-.55c.46-.74,1.04-1.43,1.75-2.09.71-.66,1.51-1.24,2.42-1.75.9-.51,1.92-.91,3.04-1.22,1.12-.31,2.34-.46,3.66-.46,1.41,0,2.71.21,3.89.62,1.18.41,2.21,1.1,3.08,2.05.87.95,1.5,2.22,1.86,3.82l-1.75-.18.37-.74c.52-.71,1.16-1.39,1.91-2.05.75-.66,1.6-1.25,2.55-1.77.95-.52,1.99-.94,3.1-1.26,1.12-.32,2.31-.48,3.57-.48,2.45,0,4.42.45,5.89,1.33,1.47.89,2.55,2.12,3.24,3.68s1.03,3.31,1.03,5.24v14.63h-7.41v-13.71c0-1.01-.16-1.89-.48-2.62-.32-.74-.84-1.31-1.54-1.73-.71-.41-1.6-.62-2.67-.62-.98,0-1.89.15-2.71.46-.83.31-1.56.73-2.19,1.26-.63.54-1.11,1.16-1.45,1.86-.34.71-.51,1.47-.51,2.3v12.79h-7.41v-13.75c0-.98-.19-1.84-.57-2.58-.38-.74-.97-1.31-1.75-1.73-.78-.41-1.79-.62-3.01-.62-.92,0-1.76.17-2.51.51-.75.34-1.4.77-1.96,1.31-.55.54-.97,1.1-1.27,1.7-.29.6-.44,1.19-.44,1.77v13.39h-7.41Z"/>
    <path d="M243.7,207.09v-24.43h6.99l.23,5.61-1.56-.55c.46-.74,1.04-1.43,1.75-2.09.71-.66,1.51-1.24,2.42-1.75.9-.51,1.92-.91,3.04-1.22,1.12-.31,2.34-.46,3.66-.46,1.41,0,2.71.21,3.89.62,1.18.41,2.21,1.1,3.08,2.05.87.95,1.5,2.22,1.86,3.82l-1.75-.18.37-.74c.52-.71,1.16-1.39,1.91-2.05.75-.66,1.6-1.25,2.55-1.77.95-.52,1.99-.94,3.1-1.26,1.12-.32,2.31-.48,3.57-.48,2.45,0,4.42.45,5.89,1.33,1.47.89,2.55,2.12,3.24,3.68s1.03,3.31,1.03,5.24v14.63h-7.41v-13.71c0-1.01-.16-1.89-.48-2.62-.32-.74-.84-1.31-1.54-1.73-.71-.41-1.6-.62-2.67-.62-.98,0-1.89.15-2.71.46-.83.31-1.56.73-2.19,1.26-.63.54-1.11,1.16-1.45,1.86-.34.71-.51,1.47-.51,2.3v12.79h-7.41v-13.75c0-.98-.19-1.84-.57-2.58-.38-.74-.97-1.31-1.75-1.73-.78-.41-1.79-.62-3.01-.62-.92,0-1.76.17-2.51.51-.75.34-1.4.77-1.96,1.31-.55.54-.97,1.1-1.27,1.7-.29.6-.44,1.19-.44,1.77v13.39h-7.41Z"/>
    <path d="M307.09,177.55c-1.38,0-2.45-.33-3.22-.99-.77-.66-1.15-1.6-1.15-2.83,0-1.1.39-2.01,1.17-2.71.78-.71,1.85-1.06,3.2-1.06s2.46.33,3.24.99c.78.66,1.17,1.59,1.17,2.78s-.39,2.06-1.17,2.76c-.78.71-1.86,1.06-3.24,1.06ZM303.41,207.09v-24.43h7.41v24.43h-7.41Z"/>
    <path d="M338.69,217.67c-2.7,0-5.11-.31-7.25-.92-2.13-.61-3.86-1.35-5.18-2.21l2.44-5.34c.74.34,1.54.69,2.42,1.06s1.86.67,2.97.92c1.1.25,2.33.37,3.68.37,1.59,0,2.97-.28,4.12-.85s2.03-1.4,2.65-2.51c.61-1.1.92-2.48.92-4.14v-2.9l1.38.23c-.21.98-.86,1.89-1.93,2.74-1.07.84-2.42,1.52-4.05,2.02-1.63.51-3.36.76-5.2.76-2.55,0-4.78-.51-6.69-1.52-1.92-1.01-3.41-2.44-4.49-4.28-1.07-1.84-1.61-3.96-1.61-6.35s.56-4.67,1.68-6.55c1.12-1.89,2.67-3.37,4.65-4.44,1.98-1.07,4.27-1.61,6.88-1.61.77,0,1.63.08,2.6.25.97.17,1.92.42,2.88.76.95.34,1.84.73,2.67,1.17.83.44,1.5.97,2.02,1.56.52.6.8,1.23.83,1.91l-1.52.37.32-5.52h6.99v21.25c0,2.27-.38,4.26-1.13,5.98-.75,1.72-1.77,3.16-3.06,4.32-1.29,1.17-2.78,2.03-4.49,2.6-1.7.57-3.53.85-5.5.85ZM338.1,201.2c1.56,0,2.91-.27,4.05-.8,1.13-.54,2-1.29,2.6-2.25.6-.97.9-2.08.9-3.34s-.31-2.41-.92-3.36c-.61-.95-1.48-1.7-2.6-2.25-1.12-.55-2.46-.83-4.02-.83s-2.94.28-4.14.83c-1.2.55-2.12,1.3-2.78,2.25-.66.95-.99,2.07-.99,3.36s.33,2.37.99,3.34c.66.97,1.59,1.72,2.78,2.25,1.2.54,2.58.8,4.14.8Z"/>
  </g>
</svg>