<?xml version="1.0" encoding="UTF-8"?>
<svg id="Layer_1" data-name="Layer 1" xmlns="http://www.w3.org/2000/svg" xmlns:xlink="http://www.w3.org/1999/xlink" viewBox="0 0 1920 1080">
  <defs>
    <filter id="drop-shadow-1" x="221.5" y="57.17" width="1437" height="988" filterUnits="userSpaceOnUse">
      <feOffset dx="10" dy="7"/>
      <feGaussianBlur result="blur" stdDeviation="0"/>
      <feFlood flood-color="#000" flood-opacity="1"/>
      <feComposite in2="blur" operator="in"/>
      <feComposite in="SourceGraphic"/>
    </filter>
    <filter id="drop-shadow-2" x="1418" y="69" width="70" height="63" filterUnits="userSpaceOnUse">
      <feOffset dx="2" dy="2"/>
      <feGaussianBlur result="blur-2" stdDeviation="3"/>
      <feFlood flood-color="#000" flood-opacity="1"/>
      <feComposite in2="blur-2" operator="in"/>
      <feComposite in="SourceGraphic"/>
    </filter>
    <filter id="drop-shadow-3" x="1491" y="69" width="71" height="63" filterUnits="userSpaceOnUse">
      <feOffset dx="2" dy="2"/>
      <feGaussianBlur result="blur-3" stdDeviation="3"/>
      <feFlood flood-color="#000" flood-opacity="1"/>
      <feComposite in2="blur-3" operator="in"/>
      <feComposite in="SourceGraphic"/>
    </filter>
    <filter id="drop-shadow-4" x="1563" y="69" width="71" height="63" filterUnits="userSpaceOnUse">
      <feOffset dx="2" dy="2"/>
      <feGaussianBlur result="blur-4" stdDeviation="3"/>
      <feFlood flood-color="#000" flood-opacity="1"/>
      <feComposite in2="blur-4" operator="in"/>
      <feComposite in="SourceGraphic"/>
    </filter>
    <filter id="drop-shadow-5" x="289.5" y="292.5" width="579" height="687.33" filterUnits="userSpaceOnUse">
      <feOffset dx="4" dy="3"/>
      <feGaussianBlur result="blur-5" stdDeviation="0"/>
      <feFlood flood-color="#000" flood-opacity="1"/>
      <feComposite in2="blur-5" operator="in"/>
      <feComposite in="SourceGraphic"/>
    </filter>
    <filter id="drop-shadow-6" x="950.83" y="292.5" width="579" height="687.33" filterUnits="userSpaceOnUse">
      <feOffset dx="4" dy="3"/>
      <feGaussianBlur result="blur-6" stdDeviation="0"/>
      <feFlood flood-color="#000" flood-opacity="1"/>
      <feComposite in2="blur-6" operator="in"/>
      <feComposite in="SourceGraphic"/>
    </filter>
  </defs>
  <rect x="223" y="58.67" width="1424" height="978" style="fill: #3394fb; filter: url(#drop-shadow-1); stroke: #000; stroke-miterlimit: 10; stroke-width: 3px;"/>
  <rect x="223" y="58.67" width="1424" height="80" style="fill: #e7317e; stroke: #000; stroke-miterlimit: 10; stroke-width: 3px;"/>
  <rect x="1425.67" y="77.33" width="50.67" height="42.67" style="fill: #d3d3d3; filter: url(#drop-shadow-2); stroke: #fff; stroke-miterlimit: 10;"/>
  <rect x="1499" y="77.33" width="50.67" height="42.67" style="fill: #d3d3d3; filter: url(#drop-shadow-3); stroke: #fff; stroke-miterlimit: 10;"/>
  <rect x="1571" y="77.33" width="50.67" height="42.67" style="fill: #dd9090; filter: url(#drop-shadow-4); stroke: #fff; stroke-miterlimit: 10;"/>
  <path d="M1609.13,83.31l-26.67,32" style="stroke: #000; stroke-miterlimit: 10; stroke-width: 3px;"/>
  <path d="M1582.32,84.25l29.14,29.76" style="stroke: #000; stroke-miterlimit: 10; stroke-width: 3px;"/>
  <path d="M1471.83,113.45l-41.65.38" style="stroke: #000; stroke-miterlimit: 10; stroke-width: 3px;"/>
  <rect x="1505.86" y="86.14" width="26" height="26" style="fill: none; stroke: #000; stroke-miterlimit: 10; stroke-width: 3px;"/>
  <rect x="1518.86" y="94" width="26" height="26" style="fill: #d3d3d3; stroke: #000; stroke-miterlimit: 10; stroke-width: 3px;"/>
  <rect x="223" y="138.67" width="1424" height="94" style="fill: #d3d3d3; stroke: #000; stroke-miterlimit: 10; stroke-width: 3px;"/>
  <rect x="237.67" y="148.33" width="86.67" height="74.67" style="fill: #fff; stroke: #000; stroke-miterlimit: 10; stroke-width: 3px;"/>
  <rect x="341.67" y="148.33" width="86.67" height="74.67" style="fill: #fff; stroke: #000; stroke-miterlimit: 10; stroke-width: 3px;"/>
  <rect x="813.67" y="148.33" width="685.33" height="74.67" style="fill: #fff; stroke: #000; stroke-miterlimit: 10; stroke-width: 3px;"/>
  <rect x="1499" y="148.33" width="96.8" height="74.67" style="fill: #d3d3d3; stroke: #000; stroke-miterlimit: 10; stroke-width: 3px;"/>
  <path d="M1523.95,170.15l41.82.86-20.91,30.16-20.91-31.03Z" style="stroke: #000; stroke-miterlimit: 10; stroke-width: 3px;"/>
  <polyline points="281 173 281 198.33 318.33 198.33 318.33 173" style="stroke: #000; stroke-miterlimit: 10; stroke-width: 3px;"/>
  <polygon points="281 163.19 281 208.15 248.98 183.49 281 163.19" style="stroke: #000; stroke-miterlimit: 10; stroke-width: 3px;"/>
  <polyline points="347.67 173 347.67 198.33 385 198.33 385 173" style="stroke: #000; stroke-miterlimit: 10; stroke-width: 3px;"/>
  <polygon points="385 163.19 385 208.15 420.43 183.49 385 163.19" style="stroke: #000; stroke-miterlimit: 10; stroke-width: 3px;"/>
  <rect x="1596.9" y="232.67" width="50.1" height="804" style="fill: #d3d3d3; stroke: #000; stroke-miterlimit: 10; stroke-width: 3px;"/>
  <rect x="1596.9" y="232.67" width="50.1" height="36.83" style="fill: #d3d3d3; stroke: #000; stroke-miterlimit: 10; stroke-width: 3px;"/>
  <rect x="1596.33" y="999.84" width="50.1" height="36.83" style="fill: #d3d3d3; stroke: #000; stroke-miterlimit: 10; stroke-width: 3px;"/>
  <rect x="1596.9" y="269.49" width="49.54" height="398.67" style="fill: #e7317e; stroke: #000; stroke-miterlimit: 10; stroke-width: 3px;"/>
  <path d="M1607.39,262.91h28l-14-23.67-14,23.67Z" style="stroke: #000; stroke-miterlimit: 10; stroke-width: 3px;"/>
  <path d="M1607.95,1006.86h28l-14,22.78-14-22.78Z" style="stroke: #000; stroke-miterlimit: 10; stroke-width: 3px;"/>
  <g>
    <rect x="291" y="294" width="572" height="681.33" style="fill: #fff; filter: url(#drop-shadow-5); stroke: #000; stroke-miterlimit: 10; stroke-width: 3px;"/>
    <polygon points="433.43 629.48 433.43 585.85 457.28 547.67 554.07 547.67 577.4 588.57 814.33 588.57 814.33 849.47 433.43 860.38 433.43 629.48" style="fill: #ffcd03; stroke: #000; stroke-linejoin: round; stroke-width: 3px;"/>
    <polygon points="318.33 630.04 434.46 857.98 814.33 857.98 713.95 630.04 318.33 630.04" style="fill: #ffcd03; stroke: #000; stroke-linejoin: round; stroke-width: 3px;"/>
    <g>
      <path d="M367.71,438.89v-48.23h26.89c3.25,0,6.16.69,8.75,2.07,2.59,1.38,4.65,3.26,6.17,5.65,1.53,2.39,2.29,5.08,2.29,8.06,0,3.22-.81,6.09-2.43,8.61-1.62,2.53-3.79,4.51-6.49,5.96-2.71,1.45-5.78,2.17-9.21,2.17h-13.97v15.71h-12ZM379.49,412.92h12.14c1.41,0,2.69-.28,3.85-.83,1.15-.55,2.07-1.3,2.75-2.24.68-.94,1.02-2.01,1.02-3.2s-.34-2.2-1.02-3.03c-.68-.83-1.6-1.47-2.75-1.93-1.15-.46-2.43-.69-3.85-.69h-12.14v11.92Z" style="fill: #f74e2c;"/>
      <path d="M448.72,439.58c-4.66,0-8.79-.81-12.38-2.45-3.6-1.63-6.41-3.88-8.43-6.75-2.02-2.87-3.03-6.14-3.03-9.82s1.01-7,3.03-9.85c2.02-2.85,4.83-5.09,8.43-6.72,3.6-1.63,7.73-2.45,12.38-2.45s8.7.82,12.28,2.45c3.57,1.63,6.37,3.87,8.4,6.72,2.02,2.85,3.03,6.13,3.03,9.85s-1.01,6.95-3.03,9.82c-2.02,2.87-4.82,5.12-8.4,6.75-3.58,1.63-7.67,2.45-12.28,2.45ZM448.72,430.07c2.26,0,4.33-.4,6.21-1.21,1.88-.8,3.38-1.92,4.48-3.34,1.1-1.42,1.63-3.08,1.59-4.96.05-1.88-.48-3.55-1.59-4.99-1.11-1.45-2.6-2.57-4.48-3.38-1.88-.8-3.95-1.21-6.21-1.21s-4.42.4-6.35,1.21c-1.93.8-3.42,1.93-4.48,3.38-1.06,1.45-1.59,3.11-1.59,4.99s.53,3.54,1.59,4.96c1.06,1.42,2.55,2.54,4.48,3.34,1.93.8,4.05,1.21,6.35,1.21Z" style="fill: #f74e2c;"/>
      <path d="M490.42,438.89v-36.58h10.73l.49,13.09-3.03-.83c.71-2.43,1.87-4.63,3.49-6.58,1.62-1.95,3.53-3.51,5.72-4.68,2.19-1.17,4.48-1.76,6.88-1.76,1.46,0,2.83.14,4.13.41,1.29.28,2.43.67,3.42,1.17l-3.1,11.92c-.85-.55-1.98-.99-3.39-1.31-1.41-.32-2.8-.48-4.16-.48-1.55,0-2.94.23-4.16.69-1.22.46-2.26,1.1-3.1,1.93-.85.83-1.48,1.76-1.91,2.79-.42,1.03-.64,2.1-.64,3.2v17.02h-11.36Z" style="fill: #f74e2c;"/>
      <path d="M535.16,411.95v-9.65h31.54v9.65h-31.54ZM544.47,438.89v-47.13h11.29v47.13h-11.29Z" style="fill: #f74e2c;"/>
      <path d="M578.55,412.85v-9.09h30.84v9.09h-30.84ZM585.82,438.89v-36.52c0-2.89.64-5.43,1.91-7.61,1.27-2.18,3.07-3.89,5.4-5.13s5.02-1.86,8.08-1.86c2.45,0,4.56.3,6.35.9,1.79.6,3.27,1.26,4.45,2l-3.18,8.13c-.8-.37-1.72-.75-2.75-1.14-1.04-.39-2.09-.59-3.18-.59-1.41,0-2.58.24-3.49.72-.92.48-1.6,1.15-2.05,2-.45.85-.67,1.83-.67,2.93v36.17h-10.87Z" style="fill: #f74e2c;"/>
      <path d="M644.32,439.58c-4.66,0-8.79-.81-12.38-2.45-3.6-1.63-6.41-3.88-8.43-6.75-2.02-2.87-3.03-6.14-3.03-9.82s1.01-7,3.03-9.85c2.02-2.85,4.83-5.09,8.43-6.72,3.6-1.63,7.73-2.45,12.38-2.45s8.7.82,12.28,2.45c3.57,1.63,6.37,3.87,8.4,6.72,2.02,2.85,3.03,6.13,3.03,9.85s-1.01,6.95-3.03,9.82c-2.02,2.87-4.82,5.12-8.4,6.75-3.58,1.63-7.67,2.45-12.28,2.45ZM644.32,430.07c2.26,0,4.33-.4,6.21-1.21,1.88-.8,3.38-1.92,4.48-3.34,1.1-1.42,1.63-3.08,1.59-4.96.05-1.88-.48-3.55-1.59-4.99-1.11-1.45-2.6-2.57-4.48-3.38-1.88-.8-3.95-1.21-6.21-1.21s-4.42.4-6.35,1.21c-1.93.8-3.42,1.93-4.48,3.38-1.06,1.45-1.59,3.11-1.59,4.99s.53,3.54,1.59,4.96c1.06,1.42,2.55,2.54,4.48,3.34,1.93.8,4.05,1.21,6.35,1.21Z" style="fill: #f74e2c;"/>
      <path d="M686.02,438.89v-50.98h11.29v50.98h-11.29Z" style="fill: #f74e2c;"/>
      <path d="M725.89,394.66c-2.12,0-3.76-.49-4.94-1.48-1.18-.99-1.76-2.4-1.76-4.24,0-1.65.6-3.01,1.8-4.06,1.2-1.06,2.83-1.58,4.9-1.58s3.78.49,4.97,1.48c1.2.99,1.8,2.38,1.8,4.17s-.6,3.08-1.8,4.13c-1.2,1.06-2.86,1.58-4.97,1.58ZM720.25,438.89v-36.58h11.36v36.58h-11.36Z" style="fill: #f74e2c;"/>
      <path d="M773.95,439.58c-4.66,0-8.79-.81-12.38-2.45-3.6-1.63-6.41-3.88-8.43-6.75-2.02-2.87-3.03-6.14-3.03-9.82s1.01-7,3.03-9.85c2.02-2.85,4.83-5.09,8.43-6.72,3.6-1.63,7.73-2.45,12.38-2.45s8.7.82,12.28,2.45c3.57,1.63,6.37,3.87,8.4,6.72,2.02,2.85,3.03,6.13,3.03,9.85s-1.01,6.95-3.03,9.82c-2.02,2.87-4.82,5.12-8.4,6.75-3.58,1.63-7.67,2.45-12.28,2.45ZM773.95,430.07c2.26,0,4.33-.4,6.21-1.21,1.88-.8,3.38-1.92,4.48-3.34,1.1-1.42,1.63-3.08,1.59-4.96.05-1.88-.48-3.55-1.59-4.99-1.11-1.45-2.6-2.57-4.48-3.38-1.88-.8-3.95-1.21-6.21-1.21s-4.42.4-6.35,1.21c-1.93.8-3.42,1.93-4.48,3.38-1.06,1.45-1.59,3.11-1.59,4.99s.53,3.54,1.59,4.96c1.06,1.42,2.55,2.54,4.48,3.34,1.93.8,4.05,1.21,6.35,1.21Z" style="fill: #f74e2c;"/>
    </g>
  </g>
  <g>
    <rect x="952.33" y="294" width="572" height="681.33" style="fill: #fff; filter: url(#drop-shadow-6); stroke: #000; stroke-miterlimit: 10; stroke-width: 3px;"/>
    <path d="M1217.37,505.97c-96.9,11.63-185.04,102.22-172.73,208.06,12.29,105.66,118.36,172.08,214.86,160.38,96.08-11.65,183.81-100.86,172.73-205.9-11.18-106.07-117.41-174.24-214.86-162.55Z" style="fill: #ffcd03; stroke: #000; stroke-miterlimit: 10; stroke-width: 3px;"/>
    <path d="M1299.3,586.76c-13.06,1.33-22.62,22.71-24.61,39.77-3.5,30.12,14.48,64.99,30.76,63.64,13.74-1.14,25.73-28.06,25.16-51.7-.6-25.18-15.57-53.31-31.32-51.7Z" style="stroke: #000; stroke-miterlimit: 10; stroke-width: 3px;"/>
    <path d="M1181.38,586.76c-13.06,1.33-22.62,22.71-24.61,39.77-3.5,30.12,14.48,64.99,30.76,63.64,13.74-1.14,25.73-28.06,25.16-51.7-.6-25.18-15.57-53.31-31.32-51.7Z" style="stroke: #000; stroke-miterlimit: 10; stroke-width: 3px;"/>
    <path d="M1153.28,751.33c19.41,35.75,57.62,56.32,96,52,48.76-5.49,72.16-48.29,74.11-52" style="fill: none; stroke: #000; stroke-miterlimit: 10; stroke-width: 3px;"/>
    <path d="M1132.01,744.86c6.35,9.5,17.23,10.08,21.66,5.28,3.41-3.69,3.7-11.32,0-17.96" style="fill: none; stroke: #000; stroke-miterlimit: 10; stroke-width: 3px;"/>
    <path d="M1344.8,745.51c-6.7,8.96-18.19,9.51-22.87,4.98-3.6-3.48-3.91-10.68,0-16.94" style="fill: none; stroke: #000; stroke-miterlimit: 10; stroke-width: 3px;"/>
    <g>
      <path d="M1084.99,439.58c-4.33,0-8.27-.63-11.82-1.89-3.55-1.26-6.63-3.02-9.24-5.27-2.61-2.25-4.63-4.89-6.07-7.92-1.44-3.03-2.15-6.34-2.15-9.92s.72-6.89,2.15-9.92c1.43-3.03,3.47-5.67,6.1-7.92,2.63-2.25,5.72-4.01,9.24-5.27,3.53-1.26,7.43-1.89,11.71-1.89s8.2.62,11.75,1.86c3.55,1.24,6.63,3,9.24,5.27,2.61,2.27,4.63,4.93,6.07,7.96,1.43,3.03,2.15,6.34,2.15,9.92s-.72,6.89-2.15,9.92c-1.44,3.03-3.46,5.68-6.07,7.96-2.61,2.27-5.69,4.03-9.24,5.27-3.55,1.24-7.44,1.86-11.68,1.86ZM1084.92,428.56c2.49,0,4.77-.36,6.84-1.07,2.07-.71,3.87-1.7,5.4-2.96,1.53-1.26,2.7-2.74,3.53-4.44.82-1.7,1.23-3.54,1.23-5.51s-.41-3.81-1.23-5.51c-.82-1.7-2-3.18-3.53-4.44-1.53-1.26-3.33-2.25-5.4-2.96-2.07-.71-4.35-1.07-6.84-1.07s-4.71.36-6.77,1.07c-2.07.71-3.88,1.69-5.43,2.93-1.55,1.24-2.73,2.72-3.53,4.44-.8,1.72-1.2,3.57-1.2,5.55s.4,3.82,1.2,5.55c.8,1.72,1.98,3.2,3.53,4.44,1.55,1.24,3.36,2.22,5.43,2.93,2.07.71,4.33,1.07,6.77,1.07Z" style="fill: #f74e2c;"/>
      <path d="M1131.63,438.89v-36.58h10.73l.35,8.41-2.4-.83c.71-1.1,1.6-2.15,2.68-3.13,1.08-.99,2.32-1.86,3.71-2.62,1.39-.76,2.94-1.37,4.66-1.83,1.72-.46,3.59-.69,5.61-.69,2.16,0,4.15.31,5.96.93,1.81.62,3.39,1.64,4.73,3.07,1.34,1.42,2.29,3.33,2.86,5.72l-2.68-.28.56-1.1c.8-1.06,1.78-2.08,2.93-3.07,1.15-.99,2.46-1.87,3.92-2.65,1.46-.78,3.05-1.41,4.76-1.89,1.72-.48,3.54-.72,5.47-.72,3.76,0,6.77.67,9.03,2,2.26,1.33,3.92,3.17,4.97,5.51,1.06,2.34,1.59,4.96,1.59,7.85v21.91h-11.36v-20.53c0-1.52-.25-2.82-.74-3.93-.49-1.1-1.28-1.96-2.36-2.58-1.08-.62-2.45-.93-4.09-.93-1.51,0-2.89.23-4.16.69-1.27.46-2.39,1.09-3.35,1.89-.96.8-1.71,1.73-2.22,2.79-.52,1.06-.78,2.2-.78,3.44v19.15h-11.36v-20.6c0-1.47-.29-2.76-.88-3.86-.59-1.1-1.48-1.96-2.68-2.58-1.2-.62-2.74-.93-4.62-.93-1.41,0-2.69.25-3.85.76-1.15.51-2.15,1.16-3,1.96-.85.8-1.49,1.65-1.94,2.55-.45.9-.67,1.78-.67,2.65v20.05h-11.36Z" style="fill: #f74e2c;"/>
      <path d="M1254.13,438.89v-36.58h10.73l.35,8.41-2.4-.83c.71-1.1,1.6-2.15,2.68-3.13,1.08-.99,2.32-1.86,3.71-2.62,1.39-.76,2.94-1.37,4.66-1.83,1.72-.46,3.59-.69,5.61-.69,2.16,0,4.15.31,5.96.93,1.81.62,3.39,1.64,4.73,3.07,1.34,1.42,2.29,3.33,2.86,5.72l-2.68-.28.56-1.1c.8-1.06,1.78-2.08,2.93-3.07,1.15-.99,2.46-1.87,3.92-2.65,1.46-.78,3.05-1.41,4.76-1.89,1.72-.48,3.54-.72,5.47-.72,3.76,0,6.77.67,9.03,2,2.26,1.33,3.92,3.17,4.97,5.51,1.06,2.34,1.59,4.96,1.59,7.85v21.91h-11.36v-20.53c0-1.52-.25-2.82-.74-3.93-.49-1.1-1.28-1.96-2.36-2.58-1.08-.62-2.45-.93-4.09-.93-1.51,0-2.89.23-4.16.69-1.27.46-2.39,1.09-3.35,1.89-.96.8-1.71,1.73-2.22,2.79-.52,1.06-.78,2.2-.78,3.44v19.15h-11.36v-20.6c0-1.47-.29-2.76-.88-3.86-.59-1.1-1.48-1.96-2.68-2.58-1.2-.62-2.74-.93-4.62-.93-1.41,0-2.69.25-3.85.76-1.15.51-2.15,1.16-3,1.96-.85.8-1.49,1.65-1.94,2.55-.45.9-.67,1.78-.67,2.65v20.05h-11.36Z" style="fill: #f74e2c;"/>
      <path d="M1351.37,394.66c-2.12,0-3.76-.49-4.94-1.48-1.18-.99-1.76-2.4-1.76-4.24,0-1.65.6-3.01,1.8-4.06,1.2-1.06,2.83-1.58,4.9-1.58s3.78.49,4.97,1.48c1.2.99,1.8,2.38,1.8,4.17s-.6,3.08-1.8,4.13c-1.2,1.06-2.86,1.58-4.97,1.58ZM1345.72,438.89v-36.58h11.36v36.58h-11.36Z" style="fill: #f74e2c;"/>
      <path d="M1399.85,454.74c-4.14,0-7.84-.46-11.11-1.38-3.27-.92-5.92-2.02-7.94-3.31l3.74-7.99c1.13.5,2.36,1.03,3.7,1.58s2.86,1.01,4.55,1.38c1.69.37,3.57.55,5.65.55,2.45,0,4.55-.43,6.32-1.27,1.76-.85,3.12-2.1,4.06-3.75.94-1.65,1.41-3.72,1.41-6.2v-4.34l2.12.34c-.33,1.47-1.32,2.84-2.96,4.1-1.65,1.26-3.72,2.27-6.21,3.03-2.49.76-5.15,1.14-7.97,1.14-3.91,0-7.33-.76-10.27-2.27-2.94-1.52-5.23-3.65-6.88-6.41-1.65-2.76-2.47-5.93-2.47-9.51s.86-6.99,2.58-9.82c1.72-2.82,4.09-5.04,7.13-6.65,3.03-1.61,6.55-2.41,10.55-2.41,1.18,0,2.5.13,3.99.38,1.48.25,2.95.63,4.41,1.14,1.46.51,2.82,1.09,4.09,1.76,1.27.67,2.3,1.45,3.1,2.34.8.9,1.22,1.85,1.27,2.86l-2.33.55.49-8.27h10.73v31.83c0,3.4-.58,6.38-1.73,8.96-1.15,2.57-2.72,4.73-4.69,6.48-1.98,1.74-4.27,3.04-6.88,3.89-2.61.85-5.42,1.27-8.43,1.27ZM1398.93,430.07c2.4,0,4.47-.4,6.21-1.21,1.74-.8,3.07-1.93,3.99-3.38.92-1.45,1.38-3.11,1.38-5s-.47-3.6-1.41-5.03c-.94-1.42-2.27-2.55-3.99-3.38-1.72-.83-3.78-1.24-6.17-1.24s-4.52.41-6.35,1.24c-1.83.83-3.26,1.95-4.27,3.38-1.01,1.42-1.52,3.1-1.52,5.03s.5,3.55,1.52,5c1.01,1.45,2.43,2.57,4.27,3.38,1.83.8,3.95,1.21,6.35,1.21Z" style="fill: #f74e2c;"/>
    </g>
  </g>
</svg>